<svg width="200" height="200" xmlns="http://www.w3.org/2000/svg" fill="none">

 <g>
  <title>Layer 1</title>
  <path id="svg_8" d="m99.39939,194.99999c-52.48619,0 -95,-42.51381 -95,-95c0,-52.48619 42.51381,-95 95,-95c52.48619,0 95,42.51381 95,95c0,52.48619 -42.51381,95 -95,95z" opacity="undefined" fill="#ffffff"/>
  <g id="svg_10">
   <path id="svg_1" fill="#0176B0" d="m127.75278,178.972c-0.483,-1.088 -3.5216,-4.302 -4.5157,-5.422c-5.76017,1.73327 -10.5983,3.305 -23.0848,1.097c-18.4157,-3.257 -34.6595,-17.844 -39.638,-38.126c-3.6843,-15.008 0.4144,-31.5631 7.5667,-41.5426c3.8647,-5.3921 7.3573,-9.0779 12.8983,-13.0255c4.1722,-2.9718 11.9664,-6.9007 18.2449,-7.7996l-0.015,45.3427l11.1908,-12.7111c0.4632,-0.5549 0.6377,-0.9253 1.1353,-1.4703l7.3857,-8.7205l15.6242,-0.0072c-0.476,0.7887 0.03,0.0428 -0.623,0.8112l-2.1898,2.6919c-0.723,0.7721 -0.9141,0.8479 -1.547,1.6804l-15.1097,17.3256c-1.4508,1.791 -3.5088,3.755 -4.3477,5.481l18.4108,21.086c0.7702,0.96 0.8233,1.216 1.7541,2.138l6.6703,7.82c1.948,-0.952 5.921,-6.404 7.509,-9.134c7.244,-12.454 8.202,-28.234 1.96,-40.7355c-3.74,-7.4891 -8.567,-13.6258 -15.7588,-17.9938c-9.4029,-5.7104 -14.8644,-6.392 -27.2458,-6.1873l0.0038,-14.8749c-9.6659,0.6339 -20.4252,4.9794 -27.5319,10.3363c-42.97546,32.3983 -24.1594,97.4092 24.6334,104.5232c12.84365,0.86174 16.6835,-0.185 26.6205,-2.584" clip-rule="evenodd" fill-rule="evenodd"/>
   <path id="svg_2" fill="#24294E" d="m110.09302,72.96686c37.0662,0.5027 60.2092,40.8994 44.2232,73.5081c-2.361,4.819 -5.483,9.737 -8.682,12.76c-0.947,0.895 -1.714,1.694 -2.56,2.633c-1.464,1.625 -7.467,6.432 -9.436,6.732l-21.2693,-24.786c-0.7794,-0.992 -1.2748,-1.446 -2.0988,-2.44l-9.6863,-11.431c-0.4407,-0.528 -0.7885,-0.738 -1.1384,-1.176c-0.3264,7.194 -0.0237,15.489 -0.1321,23.046l-11.8564,0.012l-0.0945,-64.1209c-1.6527,0.4489 -4.2554,2.9328 -5.5447,3.9893c-2.33,1.9093 -3.0064,2.8543 -4.9387,5.1121c-2.628,3.069 -5.381,7.9265 -7.1169,12.7263c-5.7449,15.8812 -1.2007,33.5422 9.7465,44.9322c9.0851,9.451 22.8175,14.187 36.1232,12.129c2.935,-0.454 5.5656,-1.562 8.0685,-1.97l7.374,8.581c1.2061,1.293 1.6242,1.743 2.4339,3.028c4.59904,-2.01631 14.873,-9.579 17.857,-13.428c1.989,-2.566 2.606,-3.001 4.645,-6.069c24.867,-37.403 0.336,-89.1272 -45.9145,-90.435l-0.0011,6.6664l-0.0016,0.0005z" clip-rule="evenodd" fill-rule="evenodd"/>
   <path id="svg_3" fill="#24294E" d="m103.71488,63.3007c0.9069,-1.4513 0.9857,-2.6148 1.5013,-4.1484c2.0079,-5.9934 8.7411,-25.1489 8.8109,-29.879c0.2184,-15.03642 -19.0412,-20.34825 -29.3018,-8.82265c-4.6345,5.20605 -9.4812,25.50735 -12.2018,33.15485l-9.5388,29.6322c-0.4337,1.4719 -0.9432,2.5061 -1.1768,4.0837c1.2223,-1.181 2.4022,-2.9291 3.673,-4.3628c10.8005,-12.172 22.6747,-17.4103 38.237,-19.6579l-0.003,0z" clip-rule="evenodd" fill-rule="evenodd"/>
   <path id="svg_4" fill="#0176B0" d="m76.56678,31.3677c0.5103,-1.5674 1.2235,-3.2815 1.4878,-4.8165c-2.6406,-2.57115 -7.7436,-3.32253 -11.4018,-2.97619c-9.0778,0.85999 -16.6216,8.76419 -16.4464,17.93629c0.2214,11.4029 1.1282,25.5236 1.5955,37.126c0.1721,4.2911 0.3197,8.3268 0.5472,12.5592c0.2213,4.1297 0.0768,8.5382 0.624,12.3714l23.5937,-72.2002z" clip-rule="evenodd" fill-rule="evenodd"/>
   <path id="svg_5" fill="#4BACDC" d="m50.02254,120.975c0.3188,-3.221 -2.2564,-59.9521 -2.7145,-61.5045c-6.85599,-0.0608 -21.06321,9.2274 -13.82341,25.0669c5.5436,12.1294 11.03771,24.2878 16.53791,36.4376z" clip-rule="evenodd" fill-rule="evenodd"/>
  </g>
 </g>
</svg>