<svg width="133" height="168" viewBox="0 0 133 168" fill="none" xmlns="http://www.w3.org/2000/svg">
<path fill-rule="evenodd" clip-rule="evenodd" d="M94.9566 164.76C94.4736 163.672 91.435 160.458 90.4409 159.338C82.0009 160.225 79.8426 162.643 67.3561 160.435C48.9404 157.178 32.6966 142.591 27.7181 122.309C24.0338 107.301 28.1325 90.7459 35.2848 80.7664C39.1495 75.3743 42.6421 71.6885 48.1831 67.7409C52.3553 64.7691 60.1495 60.8402 66.428 59.9413L66.413 105.284L77.6038 92.5729C78.067 92.018 78.2415 91.6476 78.7391 91.1026L86.1248 82.3821L101.749 82.3749C101.273 83.1636 101.779 82.4177 101.126 83.1861L98.9362 85.878C98.2132 86.6501 98.0221 86.7259 97.3892 87.5584L82.2795 104.884C80.8287 106.675 78.7707 108.639 77.9318 110.365L96.3426 131.451C97.1128 132.411 97.1659 132.667 98.0967 133.589L104.767 141.409C106.715 140.457 110.688 135.005 112.276 132.275C119.52 119.821 120.478 104.041 114.236 91.5395C110.496 84.0504 105.669 77.9137 98.4772 73.5457C89.0743 67.8353 83.6128 67.1537 71.2314 67.3584L71.2352 52.4835C61.5693 53.1174 50.81 57.4629 43.7033 62.8198C0.72784 95.2181 19.5439 160.229 68.3367 167.343C80.052 169.051 85.0202 167.158 94.9572 164.759L94.9566 164.76Z" fill="#0176B0"/>
<path fill-rule="evenodd" clip-rule="evenodd" d="M77.1558 58.8959C114.222 59.3986 137.365 99.7953 121.379 132.404C119.018 137.223 115.896 142.141 112.697 145.164C111.75 146.059 110.983 146.858 110.137 147.797C108.673 149.422 102.67 154.229 100.701 154.529L79.4317 129.743C78.6523 128.751 78.1569 128.297 77.3329 127.303L67.6466 115.872C67.2059 115.344 66.8581 115.134 66.5082 114.696C66.1818 121.89 66.4845 130.185 66.3761 137.742L54.5197 137.754L54.4252 73.6331C52.7725 74.082 50.1698 76.5659 48.8805 77.6224C46.5505 79.5317 45.8741 80.4767 43.9418 82.7345C41.3138 85.8035 38.5608 90.661 36.8249 95.4608C31.08 111.342 35.6242 129.003 46.5714 140.393C55.6565 149.844 69.3889 154.58 82.6946 152.522C85.6296 152.068 88.2602 150.96 90.7631 150.552L98.1371 159.133C99.3432 160.426 99.7613 160.876 100.571 162.161C105.029 161.132 115.444 152.582 118.428 148.733C120.417 146.167 121.034 145.732 123.073 142.664C147.94 105.261 123.409 53.5368 77.1585 52.229L77.1574 58.8954L77.1558 58.8959Z" fill="#24294E"/>
<path fill-rule="evenodd" clip-rule="evenodd" d="M70.9187 49.0887C71.8256 47.6374 71.9044 46.4739 72.42 44.9403C74.4279 38.9469 81.1611 19.7914 81.2309 15.0613C81.4493 0.0248771 62.1897 -5.28695 51.9291 6.23865C47.2946 11.4447 42.4479 31.746 39.7273 39.3935L30.1885 69.0257C29.7548 70.4976 29.2453 71.5318 29.0117 73.1094C30.234 71.9284 31.4139 70.1803 32.6847 68.7466C43.4852 56.5746 55.3594 51.3363 70.9217 49.0887H70.9187Z" fill="#24294E"/>
<path fill-rule="evenodd" clip-rule="evenodd" d="M43.7706 17.1557C44.2809 15.5883 44.9941 13.8742 45.2584 12.3392C42.6178 9.76805 37.5148 9.01667 33.8566 9.36301C24.7788 10.223 17.235 18.1272 17.4102 27.2993C17.6316 38.7022 18.5384 52.8229 19.0057 64.4253C19.1778 68.7164 19.3254 72.7521 19.5529 76.9845C19.7742 81.1142 19.6297 85.5227 20.1769 89.3559L43.7706 17.1557Z" fill="#0176B0"/>
<path fill-rule="evenodd" clip-rule="evenodd" d="M18.5402 106.763C18.859 103.542 16.2838 46.8109 15.8257 45.2585C8.96971 45.1977 -5.23751 54.4859 2.00229 70.3254C7.54589 82.4548 13.04 94.6132 18.5402 106.763Z" fill="#4BACDC"/>
</svg>
